<svg width="128" height="128" viewBox="0 0 128 128" fill="none" xmlns="http://www.w3.org/2000/svg">
<g clip-path="url(#clip0_10_97)">
<rect width="128" height="128" fill="white"/>
<path d="M96.1338 0C113.732 0.000385241 128 14.2688 128 31.8672V96.1338C128 113.732 113.732 128 96.1338 128C92.2065 128 89.0226 124.816 89.0225 120.889C89.0227 116.962 92.2066 113.778 96.1338 113.778C105.877 113.778 113.778 105.877 113.778 96.1338V31.8672C113.778 22.1235 105.877 14.223 96.1338 14.2227H31.8672C22.1233 14.2227 14.2227 22.1233 14.2227 31.8672V51.0576C14.2226 54.9848 11.0385 58.1688 7.11133 58.1689C3.18403 58.1689 0.000100772 54.9849 0 51.0576V31.8672C0 14.2685 14.2685 0 31.8672 0H96.1338ZM70.0508 113.763C73.8079 113.953 76.7959 117.06 76.7959 120.864C76.7959 124.669 73.8078 127.775 70.0508 127.966L69.6846 127.976H44.7227C40.7953 127.976 37.6114 124.792 37.6113 120.864C37.6113 116.937 40.7953 113.753 44.7227 113.753H69.6846L70.0508 113.763ZM3.42969 72.5732C6.11995 69.883 10.4292 69.7992 13.2207 72.3213L13.4863 72.5732L35.0205 94.1074C36.3541 95.4411 37.1036 97.2506 37.1035 99.1367C37.1033 101.023 36.3542 102.832 35.0205 104.165L13.4863 125.695L13.2207 125.947C10.429 128.469 6.11975 128.385 3.42969 125.694C0.653009 122.917 0.652715 118.415 3.42969 115.638L19.9346 99.1348L3.42969 82.6299L3.17773 82.3643C0.65572 79.5729 0.739664 75.2635 3.42969 72.5732ZM63.959 29.7686C67.7634 29.7687 70.8699 32.7566 71.0605 36.5137L71.0703 36.8799V40.7832C72.5978 41.2478 74.0609 41.8601 75.4443 42.6016L78.208 39.8389L78.4727 39.5869C81.2641 37.0646 85.5743 37.1485 88.2646 39.8389C90.9546 42.5291 91.0384 46.8385 88.5166 49.6299L88.2646 49.8955L85.4688 52.6904C86.1946 54.0654 86.7926 55.5179 87.2461 57.0332H91.2227L91.5889 57.043C95.3461 57.2335 98.334 60.3399 98.334 64.1445C98.3338 67.9489 95.346 71.0556 91.5889 71.2461L91.2227 71.2559H87.1582C86.6952 72.7352 86.0948 74.1536 85.3711 75.4961L88.2646 78.3896L88.5166 78.6543C91.0388 81.4458 90.9549 85.756 88.2646 88.4463C85.5743 91.1363 81.264 91.2203 78.4727 88.6982L78.208 88.4463L75.2578 85.4961C73.9296 86.1931 72.5293 86.771 71.0703 87.2148V91.4043L71.0605 91.7705C70.87 95.5276 67.7634 98.5155 63.959 98.5156C60.1544 98.5156 57.048 95.5277 56.8574 91.7705L56.8477 91.4043V87.1904C55.3981 86.7439 54.0071 86.1646 52.6875 85.4678L49.71 88.4463C46.933 91.223 42.4303 91.2228 39.6533 88.4463C36.8763 85.6693 36.8765 81.1667 39.6533 78.3896L42.5996 75.4424C41.8888 74.1159 41.2987 72.7154 40.8418 71.2559H36.6982C32.7712 71.2557 29.5871 68.0716 29.5869 64.1445C29.5869 60.2173 32.7711 57.0334 36.6982 57.0332H40.7539C41.2015 55.5377 41.789 54.1031 42.502 52.7441L39.6533 49.8955L39.4014 49.6299C36.8793 46.8384 36.9631 42.5291 39.6533 39.8389C42.3436 37.1486 46.6529 37.0648 49.4443 39.5869L49.71 39.8389L52.501 42.6299C53.8756 41.8886 55.3298 41.2762 56.8477 40.8086V36.8799C56.8477 32.9525 60.0316 29.7686 63.959 29.7686ZM64.7207 53.9873C64.4704 54.014 64.2164 54.0293 63.959 54.0293C63.7117 54.0293 63.4673 54.0158 63.2266 53.9912C58.0429 54.3864 53.9591 58.7152 53.959 64C53.9592 69.5451 58.4549 74.0398 64 74.04C69.5451 74.0398 74.0398 69.5451 74.04 64C74.04 61.483 73.1121 59.1841 71.582 57.4219C71.4205 57.2867 71.2621 57.1449 71.1104 56.9932C70.9419 56.8248 70.7847 56.6491 70.6367 56.4688C69.0357 55.0567 66.9824 54.1478 64.7207 53.9873Z" fill="black"/>
</g>
<defs>
<clipPath id="clip0_10_97">
<rect width="128" height="128" fill="white"/>
</clipPath>
</defs>
</svg>
