<svg width="16" height="16" viewBox="0 0 16 16" fill="none" xmlns="http://www.w3.org/2000/svg">
<g clip-path="url(#clip0_10_55)">
<rect width="16" height="16" fill="white"/>
<path d="M12.0166 0C14.2163 9.80236e-05 15.9999 1.78373 16 3.9834V12.0166C15.9999 14.2163 14.2163 15.9999 12.0166 16C11.5259 15.9999 11.1282 15.602 11.1279 15.1113C11.128 14.6206 11.5259 14.2218 12.0166 14.2217C13.2344 14.2216 14.2216 13.2344 14.2217 12.0166V3.9834C14.2216 2.76557 13.2344 1.77744 12.0166 1.77734H3.9834C2.76558 1.77746 1.77746 2.76558 1.77734 3.9834V6.38184C1.77734 6.87276 1.37959 7.27051 0.888672 7.27051C0.397849 7.27039 0 6.87269 0 6.38184V3.9834C0.000118738 1.78374 1.78374 0.000114357 3.9834 0H12.0166ZM8.80078 14.2236C9.24911 14.2691 9.59863 14.6481 9.59863 15.1084C9.59844 15.5685 9.24898 15.9478 8.80078 15.9932L8.70996 15.9971H5.58984C5.09928 15.9968 4.70138 15.599 4.70117 15.1084C4.70117 14.6176 5.09915 14.22 5.58984 14.2197H8.70996L8.80078 14.2236ZM1.68652 15.7119C1.33942 16.0589 0.775827 16.0589 0.428711 15.7119C0.0818463 15.3649 0.081961 14.8022 0.428711 14.4551L1.68652 15.7119ZM0.428711 9.07129C0.754083 8.74608 1.26909 8.72623 1.61816 9.01074L1.68652 9.07129L4.37793 11.7637C4.54436 11.9302 4.63856 12.1561 4.63867 12.3916C4.63865 12.6272 4.54451 12.8538 4.37793 13.0205L1.68652 15.7119L1.05762 15.083L0.428711 14.4551L2.49219 12.3916L0.428711 10.3291L0.368164 10.2607C0.0836104 9.91161 0.103348 9.39665 0.428711 9.07129ZM7.99512 3.72168C8.45526 3.72182 8.83442 4.07134 8.87988 4.51953L8.88379 4.61035V5.09863C9.07439 5.15663 9.25703 5.23272 9.42969 5.3252L9.77637 4.97949L9.84375 4.91895C10.1928 4.63431 10.7078 4.65428 11.0332 4.97949C11.3802 5.32661 11.3802 5.89021 11.0332 6.2373L10.7168 6.55273L10.6816 6.58691C10.7724 6.75867 10.8476 6.93961 10.9043 7.12891H11.4033L11.4941 7.13281C11.9421 7.17845 12.2918 7.55763 12.292 8.01758C12.292 8.47769 11.9422 8.85665 11.4941 8.90234L11.4033 8.90625H10.8945C10.8367 9.09101 10.7612 9.26786 10.6709 9.43555L10.6719 9.43652L10.6729 9.43848L10.6807 9.44629L10.6826 9.44727L10.6846 9.44922L10.6855 9.45117L10.6953 9.46094L10.6973 9.46191L10.6992 9.46387L10.7002 9.46582L10.71 9.47559L10.7119 9.47656L10.7139 9.47852L10.7148 9.48047L11.0332 9.79883L10.4043 10.4268L9.77637 11.0557L9.45801 10.7373L9.45605 10.7363L9.4541 10.7344L9.45312 10.7324L9.44336 10.7227L9.44141 10.7217L9.43945 10.7197L9.43848 10.7178L9.42871 10.708L9.42676 10.707L9.4248 10.7051L9.42383 10.7031L9.41602 10.6953L9.41406 10.6943L9.41211 10.6924L9.41113 10.6904L9.40625 10.6855C9.24042 10.7726 9.06593 10.8449 8.88379 10.9004V11.4258L8.87988 11.5166C8.83433 11.9647 8.45519 12.3143 7.99512 12.3145C7.50428 12.3145 7.10658 11.9166 7.10645 11.4258V10.8984C6.92487 10.8425 6.7512 10.769 6.58594 10.6816L6.21387 11.0557L5.58496 10.4268L4.95605 9.79883L5.3252 9.42871C5.23654 9.26307 5.16247 9.08847 5.10547 8.90625H4.58691C4.09618 8.90603 3.69824 8.50836 3.69824 8.01758C3.69847 7.52699 4.09632 7.12912 4.58691 7.12891H5.0957C5.15158 6.9423 5.22453 6.76334 5.31348 6.59375L4.95605 6.2373L4.89551 6.16895C4.61105 5.81987 4.63084 5.30484 4.95605 4.97949C5.28139 4.65416 5.79638 4.63447 6.14551 4.91895L6.21387 4.97949L6.5625 5.32812C6.73445 5.23543 6.91657 5.15903 7.10645 5.10059V4.61035C7.10645 4.11943 7.5042 3.72168 7.99512 3.72168ZM6.21387 11.0557C5.86672 11.4027 5.30315 11.4028 4.95605 11.0557C4.60936 10.7086 4.60941 10.1459 4.95605 9.79883L6.21387 11.0557ZM11.0332 9.79883C11.3801 10.1459 11.3802 10.7086 11.0332 11.0557C10.6861 11.4027 10.1235 11.4026 9.77637 11.0557L11.0332 9.79883ZM8.08105 6.74805C8.05273 6.75078 8.02415 6.7539 7.99512 6.75391C7.96588 6.75391 7.93672 6.75178 7.9082 6.74902C7.25804 6.79607 6.74534 7.33792 6.74512 8C6.74536 8.69282 7.30718 9.25562 8 9.25586C8.69282 9.25562 9.25562 8.69282 9.25586 8C9.25575 7.6827 9.13683 7.39286 8.94238 7.17188C8.92426 7.15645 8.9058 7.14114 8.88867 7.12402C8.86881 7.10415 8.84962 7.08371 8.83203 7.0625C8.62923 6.88243 8.3688 6.76651 8.08105 6.74805Z" fill="black"/>
</g>
<defs>
<clipPath id="clip0_10_55">
<rect width="16" height="16" fill="white"/>
</clipPath>
</defs>
</svg>
