<svg width="32" height="32" viewBox="0 0 32 32" fill="none" xmlns="http://www.w3.org/2000/svg">
<g clip-path="url(#clip0_10_54)">
<rect width="32" height="32" fill="white"/>
<path d="M24.0332 0C28.4324 0.000196044 31.9995 3.5667 32 7.96582V24.0332C31.9998 28.4326 28.4326 31.9998 24.0332 32C23.0516 31.9998 22.2549 31.2034 22.2549 30.2217C22.2552 29.2402 23.0517 28.4446 24.0332 28.4443C26.4689 28.4441 28.4441 26.4689 28.4443 24.0332V7.96582C28.4438 5.53038 26.4687 3.55488 24.0332 3.55469H7.96582C5.53055 3.55517 3.55518 5.53055 3.55469 7.96582V12.7637C3.55469 13.7455 2.75918 14.542 1.77734 14.542C0.7957 14.5418 0 13.7454 0 12.7637V7.96582C0.000492865 3.56688 3.56687 0.000484298 7.96582 0H24.0332ZM17.6025 28.4473C18.4991 28.5382 19.1991 29.2953 19.1992 30.2158C19.1992 31.1364 18.4991 31.8935 17.6025 31.9844L17.4209 31.9932H11.1807C10.1988 31.9932 9.40332 31.1977 9.40332 30.2158C9.40344 29.2341 10.1989 28.4385 11.1807 28.4385H17.4209L17.6025 28.4473ZM0.857422 18.1436C1.50829 17.4927 2.53806 17.452 3.23633 18.0215L3.37109 18.1436L8.75488 23.5273L8.87305 23.6572C9.13232 23.9736 9.27541 24.3715 9.27539 24.7842C9.27534 25.1968 9.13234 25.5948 8.87305 25.9111L8.75488 26.041L3.37109 31.4238L3.23633 31.5459C2.53811 32.1152 1.50821 32.0745 0.857422 31.4238C0.163384 30.7295 0.163304 29.6034 0.857422 28.9092L4.9834 24.7832L0.857422 20.6572L0.735352 20.5225C0.165873 19.8243 0.206715 18.7944 0.857422 18.1436ZM15.9893 7.44238C16.9097 7.44238 17.6667 8.1417 17.7578 9.03809L17.7666 9.21973V10.1963C18.1485 10.3124 18.5144 10.4651 18.8604 10.6504L18.9199 10.5918L19.5527 9.95996L19.6875 9.83789C20.3858 9.2685 21.4156 9.30913 22.0664 9.95996C22.717 10.6108 22.7578 11.6407 22.1885 12.3389L22.0664 12.4736L21.4346 13.1064L21.3662 13.1738C21.5476 13.5174 21.6972 13.8801 21.8105 14.2588H22.8057L22.9873 14.2676C23.8837 14.3587 24.583 15.1157 24.583 16.0361C24.583 16.9565 23.8837 17.7136 22.9873 17.8047L22.8057 17.8135H21.79C21.6743 18.1834 21.5227 18.5374 21.3418 18.873L21.3428 18.874C21.3439 18.875 21.3456 18.8759 21.3467 18.877C21.3477 18.8781 21.3485 18.8798 21.3496 18.8809L21.3535 18.8848C21.3546 18.8858 21.3564 18.8866 21.3574 18.8877L21.3613 18.8916C21.3623 18.8927 21.3632 18.8944 21.3643 18.8955L21.3682 18.8994C21.3693 18.9004 21.371 18.9013 21.3721 18.9023L21.376 18.9062C21.377 18.9074 21.3778 18.9091 21.3789 18.9102L21.3828 18.9141C21.3839 18.9151 21.3857 18.9159 21.3867 18.917L21.3906 18.9209C21.3916 18.922 21.3925 18.9237 21.3936 18.9248L21.3975 18.9287C21.3986 18.9297 21.4003 18.9306 21.4014 18.9316L21.4053 18.9355C21.4063 18.9367 21.4071 18.9384 21.4082 18.9395L21.4121 18.9434C21.4132 18.9444 21.415 18.9452 21.416 18.9463L21.4199 18.9502C21.4209 18.9513 21.4218 18.953 21.4229 18.9541L21.4268 18.958C21.4279 18.959 21.4296 18.9599 21.4307 18.9609L21.4346 18.9648L22.0664 19.5977L22.1885 19.7324C22.7577 20.4306 22.717 21.4605 22.0664 22.1113C21.4156 22.7621 20.3858 22.8027 19.6875 22.2334L19.5527 22.1113L18.9199 21.4795L18.916 21.4756C18.9149 21.4745 18.9141 21.4728 18.9131 21.4717L18.9092 21.4678C18.9081 21.4667 18.9064 21.4658 18.9053 21.4648L18.9014 21.4609C18.9003 21.4599 18.8994 21.4582 18.8984 21.457L18.8945 21.4531C18.8935 21.4521 18.8917 21.4512 18.8906 21.4502L18.8867 21.4463C18.8857 21.4452 18.8848 21.4435 18.8838 21.4424L18.8799 21.4385C18.8788 21.4374 18.8771 21.4365 18.876 21.4355L18.8721 21.4316C18.871 21.4306 18.8702 21.4289 18.8691 21.4277L18.8652 21.4238C18.8642 21.4228 18.8624 21.4219 18.8613 21.4209L18.8574 21.417C18.8564 21.4159 18.8555 21.4142 18.8545 21.4131L18.8506 21.4092C18.8495 21.4081 18.8478 21.4073 18.8467 21.4062L18.8428 21.4023C18.8417 21.4013 18.8409 21.3996 18.8398 21.3984L18.8359 21.3945C18.8349 21.3935 18.8331 21.3926 18.832 21.3916C18.831 21.3905 18.8301 21.3888 18.8291 21.3877L18.8252 21.3838C18.8241 21.3827 18.8224 21.3819 18.8213 21.3809L18.8174 21.377C18.8163 21.3759 18.8155 21.3742 18.8145 21.373L18.8135 21.3721C18.4812 21.5464 18.1316 21.6918 17.7666 21.8027V22.8516L17.7578 23.0332C17.6666 23.9295 16.9096 24.6289 15.9893 24.6289C15.0691 24.6287 14.3119 23.9294 14.2207 23.0332L14.2119 22.8516V21.7969C13.8496 21.6853 13.5027 21.5394 13.1729 21.3652L12.4268 22.1113C11.7325 22.8053 10.6073 22.8054 9.91309 22.1113C9.2191 21.4171 9.21917 20.2919 9.91309 19.5977L10.6504 18.8594C10.4728 18.5278 10.3241 18.1783 10.21 17.8135H9.1748C8.193 17.8135 7.39752 17.0179 7.39746 16.0361C7.39746 15.0543 8.19297 14.2588 9.1748 14.2588H10.1895C10.3012 13.8852 10.448 13.527 10.626 13.1875L9.91309 12.4736L9.79102 12.3389C9.22161 11.6407 9.26247 10.6108 9.91309 9.95996C10.5639 9.30912 11.5937 9.26845 12.292 9.83789L12.4268 9.95996L13.125 10.6572C13.4687 10.4719 13.8324 10.319 14.2119 10.2021V9.21973C14.212 8.23813 15.0077 7.44261 15.9893 7.44238ZM16.1689 13.4971C16.11 13.503 16.0498 13.5068 15.9893 13.5068C15.9303 13.5068 15.872 13.5037 15.8145 13.498C14.5148 13.5932 13.4893 14.6762 13.4893 16C13.4893 17.3863 14.6137 18.5097 16 18.5098C17.3863 18.5097 18.5097 17.3863 18.5098 16C18.5097 15.3607 18.2685 14.7792 17.875 14.3359C17.8423 14.3077 17.8094 14.2791 17.7783 14.248C17.7414 14.2111 17.7068 14.1721 17.6738 14.1328C17.2687 13.7692 16.7464 13.5355 16.1689 13.4971Z" fill="black"/>
</g>
<defs>
<clipPath id="clip0_10_54">
<rect width="32" height="32" fill="white"/>
</clipPath>
</defs>
</svg>
