<svg width="512" height="512" viewBox="0 0 512 512" fill="none" xmlns="http://www.w3.org/2000/svg">
<g clip-path="url(#clip0_10_139)">
<rect width="512" height="512" fill="white"/>
<path d="M384.532 0C454.927 0 512 57.0733 512 127.468V384.532C512 454.927 454.927 512 384.532 512C368.823 512 356.088 499.265 356.088 483.556C356.088 467.846 368.823 455.111 384.532 455.111C423.508 455.111 455.111 423.508 455.111 384.532V127.468C455.111 88.4922 423.508 56.8887 384.532 56.8887H127.468C88.4921 56.8887 56.8888 88.4921 56.8887 127.468V204.231C56.8885 219.941 44.1536 232.676 28.4443 232.676C12.735 232.676 0.000213384 219.941 0 204.231V127.468C0.000131962 57.0733 57.0733 0 127.468 0H384.532ZM279.472 455.021C294.842 455.411 307.182 467.993 307.182 483.457C307.181 498.921 294.842 511.503 279.472 511.893L278.737 511.901H178.891C163.181 511.901 150.446 499.166 150.446 483.457C150.446 467.748 163.181 455.013 178.891 455.013H278.737L279.472 455.021ZM13.7197 290.292C24.6544 279.357 42.2772 279.186 53.4209 289.779L53.9463 290.292L140.085 376.431C145.419 381.765 148.416 389.001 148.416 396.545C148.416 404.089 145.418 411.325 140.083 416.659L53.9443 502.781C42.8351 513.888 24.825 513.886 13.7178 502.777C2.61064 491.668 2.61239 473.658 13.7217 462.551L79.7432 396.542L13.7197 330.519L13.207 329.993C2.61397 318.849 2.78501 301.227 13.7197 290.292ZM255.835 119.075C271.299 119.075 283.881 131.415 284.271 146.785L284.279 147.52V163.134C290.39 164.992 296.246 167.438 301.78 170.404L312.832 159.354L313.358 158.841C324.502 148.248 342.124 148.419 353.059 159.354C363.993 170.288 364.164 187.911 353.571 199.055L353.059 199.58L341.883 210.755C344.787 216.256 347.176 222.069 348.99 228.132H364.894L365.627 228.141C380.997 228.53 393.338 241.112 393.338 256.576C393.338 272.04 380.997 284.622 365.627 285.012L364.894 285.021H348.638C346.786 290.939 344.381 296.613 341.486 301.983L342.003 302.5C342.022 302.519 342.041 302.539 342.061 302.559C342.08 302.578 342.1 302.597 342.119 302.616L353.059 313.556L353.571 314.082C364.164 325.226 363.993 342.848 353.059 353.782C342.124 364.717 324.502 364.887 313.358 354.295L312.832 353.782L301.893 342.843C301.873 342.823 301.854 342.803 301.835 342.784C301.816 342.765 301.796 342.746 301.776 342.727L301.039 341.989C295.724 344.779 290.118 347.089 284.279 348.865V365.618L284.271 366.352C283.881 381.722 271.299 394.062 255.835 394.062C240.371 394.062 227.789 381.722 227.399 366.352L227.391 365.618V348.765C221.591 346.978 216.024 344.664 210.744 341.876L198.839 353.782C187.731 364.89 169.721 364.89 158.612 353.782C147.504 342.674 147.504 324.664 158.612 313.556L170.397 301.77C167.554 296.462 165.189 290.86 163.361 285.021H146.795C131.085 285.021 118.351 272.286 118.351 256.576C118.351 240.867 131.086 228.132 146.795 228.132H163.01C164.8 222.149 167.151 216.408 170.004 210.972L158.612 199.58L158.1 199.055C147.507 187.911 147.678 170.288 158.612 159.354C169.547 148.419 187.17 148.248 198.313 158.841L198.839 159.354L210.004 170.519C215.502 167.554 221.319 165.104 227.391 163.233V147.52C227.391 131.81 240.126 119.075 255.835 119.075ZM258.961 215.944C257.934 216.057 256.891 216.117 255.835 216.117C254.822 216.117 253.822 216.062 252.837 215.959C232.134 217.572 215.837 234.882 215.837 255.999C215.837 278.18 233.819 296.163 256 296.163C278.181 296.163 296.164 278.18 296.164 255.999C296.164 245.964 292.482 236.79 286.397 229.75C285.726 229.192 285.073 228.599 284.443 227.969C283.755 227.28 283.108 226.565 282.505 225.827C276.126 220.219 267.955 216.6 258.961 215.944Z" fill="black"/>
</g>
<defs>
<clipPath id="clip0_10_139">
<rect width="512" height="512" fill="white"/>
</clipPath>
</defs>
</svg>
