<svg width="64" height="64" viewBox="0 0 64 64" fill="none" xmlns="http://www.w3.org/2000/svg">
<g clip-path="url(#clip0_10_76)">
<rect width="64" height="64" fill="white"/>
<path d="M48.0664 0C56.8657 6.70121e-05 64 7.13431 64 15.9336V48.0664C63.9999 56.8656 56.8656 63.9999 48.0664 64C46.1029 63.9999 44.5108 62.4079 44.5107 60.4443C44.5109 58.4808 46.1029 56.8888 48.0664 56.8887C52.9383 56.8886 56.8886 52.9383 56.8887 48.0664V15.9336C56.8887 11.0617 52.9383 7.1114 48.0664 7.11133H15.9336C11.0616 7.11133 7.11133 11.0616 7.11133 15.9336V25.5293C7.11112 27.4928 5.51916 29.0849 3.55566 29.085C1.59211 29.085 0.000208858 27.4928 0 25.5293V15.9336C0 7.13427 7.13427 0 15.9336 0H48.0664ZM35.0254 56.8809C36.9038 56.9762 38.3972 58.5296 38.3975 60.4316C38.3975 62.3339 36.9039 63.8871 35.0254 63.9824L34.8418 63.9873H22.3613C20.3976 63.9873 18.8057 62.3953 18.8057 60.4316C18.8059 58.4682 20.3978 56.876 22.3613 56.876H34.8418L35.0254 56.8809ZM1.71582 36.2871C3.06097 34.9421 5.21563 34.8991 6.61133 36.1602L6.74316 36.2871L17.5107 47.0537C18.1774 47.7205 18.5528 48.6254 18.5527 49.5684C18.5526 50.5112 18.1774 51.4153 17.5107 52.082L6.74316 62.8477C5.35461 64.2359 3.10325 64.236 1.71484 62.8477C0.326464 61.459 0.327212 59.2077 1.71582 57.8193L9.96777 49.5674L1.71582 41.3145L1.58887 41.1826C0.327798 39.7869 0.370681 37.6322 1.71582 36.2871ZM31.9795 14.8838C33.8817 14.8839 35.435 16.3783 35.5303 18.2568L35.5352 18.4395V20.3926C36.2984 20.6248 37.0294 20.9303 37.7207 21.3008L37.8389 21.1836L39.1035 19.9199L39.2363 19.793C40.6321 18.532 42.7867 18.5748 44.1318 19.9199C45.5202 21.3084 45.5202 23.5588 44.1318 24.9473L42.7324 26.3457C43.0953 27.0331 43.3943 27.759 43.6211 28.5166H45.6123L45.7949 28.5215C47.6734 28.6169 49.167 30.1701 49.167 32.0723C49.1669 33.9744 47.6733 35.5276 45.7949 35.623L45.6123 35.6279H43.5791C43.3476 36.3675 43.0463 37.076 42.6846 37.7471L44.1318 39.1943L44.2578 39.3271C45.5191 40.7229 45.4771 42.8774 44.1318 44.2227C42.7866 45.5677 40.632 45.6099 39.2363 44.3486L39.1035 44.2227L37.627 42.7461C36.9632 43.0943 36.2642 43.3837 35.5352 43.6055V45.7021L35.5303 45.8848C35.435 47.7633 33.8817 49.2568 31.9795 49.2568C30.0159 49.2568 28.424 47.6656 28.4238 45.7021V43.5947C27.699 43.3715 27.0045 43.0798 26.3447 42.7314L24.8545 44.2227L24.7227 44.3486C23.327 45.61 21.1724 45.5677 19.8271 44.2227C18.4386 42.8341 18.4386 40.5829 19.8271 39.1943L21.3008 37.7197C20.9456 37.0567 20.6493 36.3574 20.4209 35.6279H18.3496C16.386 35.6279 14.7941 34.0359 14.7939 32.0723C14.7939 30.1086 16.3859 28.5166 18.3496 28.5166H20.3789C20.6026 27.7692 20.8956 27.0522 21.252 26.373L19.8271 24.9473L19.7002 24.8154C18.4391 23.4197 18.482 21.2651 19.8271 19.9199C21.1723 18.5748 23.3269 18.5319 24.7227 19.793L24.8545 19.9199L26.251 21.3154C26.9382 20.9448 27.665 20.6381 28.4238 20.4043V18.4395C28.4241 16.476 30.016 14.8838 31.9795 14.8838ZM32.3574 26.9932C32.2332 27.0063 32.1072 27.0137 31.9795 27.0137C31.8565 27.0137 31.735 27.0073 31.6152 26.9951C29.0225 27.1918 26.9796 29.3569 26.9795 32C26.9796 34.7725 29.2275 37.0204 32 37.0205C34.7725 37.0204 37.0204 34.7725 37.0205 32C37.0205 30.7392 36.5548 29.5878 35.7871 28.7061C35.708 28.6396 35.6301 28.5705 35.5557 28.4961C35.4721 28.4126 35.3938 28.3257 35.3203 28.2363C34.5187 27.5287 33.4904 27.0729 32.3574 26.9932Z" fill="black"/>
</g>
<defs>
<clipPath id="clip0_10_76">
<rect width="64" height="64" fill="white"/>
</clipPath>
</defs>
</svg>
